<svg xmlns="http://www.w3.org/2000/svg" viewBox="0 0 1536 1024">
  <defs>
    <linearGradient id="arm" x1="0" y1="1" x2="1" y2="0">
      <stop stop-color="#244fbd" stop-opacity="0"/>
      <stop offset=".22" stop-color="#4e72e2" stop-opacity=".28"/>
      <stop offset=".48" stop-color="#9f68df" stop-opacity=".46"/>
      <stop offset=".68" stop-color="#cf67c9" stop-opacity=".24"/>
      <stop offset="1" stop-color="#3157c1" stop-opacity="0"/>
    </linearGradient>
    <linearGradient id="core" x1="0" y1="1" x2="1" y2="0">
      <stop stop-color="#79b9ff" stop-opacity="0"/>
      <stop offset=".33" stop-color="#b6c9ff" stop-opacity=".28"/>
      <stop offset=".52" stop-color="#f0e9ff" stop-opacity=".44"/>
      <stop offset=".7" stop-color="#d9a6ff" stop-opacity=".2"/>
      <stop offset="1" stop-color="#6d7ce6" stop-opacity="0"/>
    </linearGradient>
    <radialGradient id="bloom">
      <stop stop-color="#f5f7ff" stop-opacity=".46"/>
      <stop offset=".24" stop-color="#baa0f2" stop-opacity=".25"/>
      <stop offset=".58" stop-color="#7254b8" stop-opacity=".11"/>
      <stop offset="1" stop-color="#402776" stop-opacity="0"/>
    </radialGradient>
    <filter id="soft" x="-18%" y="-18%" width="136%" height="136%"><feGaussianBlur stdDeviation="18"/></filter>
    <filter id="glow" x="-12%" y="-12%" width="124%" height="124%"><feGaussianBlur stdDeviation="7"/></filter>
    <filter id="lane" x="-12%" y="-12%" width="124%" height="124%"><feGaussianBlur stdDeviation="10"/></filter>
  </defs>
  <path d="M-120 920C230 760 400 670 650 550S1090 260 1650 80" stroke="url(#arm)" stroke-width="208" stroke-linecap="round" fill="none" filter="url(#soft)"/>
  <path d="M-100 900C235 752 414 656 655 545S1100 250 1640 92" stroke="url(#core)" stroke-width="82" stroke-linecap="round" fill="none" filter="url(#glow)"/>
  <path d="M-70 890C255 742 430 650 666 536S1110 246 1600 110" stroke="#e8edff" stroke-opacity=".095" stroke-width="9" stroke-linecap="round" fill="none"/>
  <ellipse cx="775" cy="505" rx="420" ry="158" fill="url(#bloom)" transform="rotate(-24 775 505)" filter="url(#soft)"/>
  <ellipse cx="780" cy="504" rx="205" ry="68" fill="url(#bloom)" opacity=".42" transform="rotate(-24 780 504)" filter="url(#glow)"/>
  <path d="M38 850C355 720 522 632 730 520s466-276 758-350" stroke="#07112f" stroke-opacity=".30" stroke-width="48" stroke-linecap="round" fill="none" filter="url(#lane)"/>
  <g fill="#d9e5ff" opacity=".32">
    <circle cx="230" cy="760" r="1.2"/><circle cx="324" cy="715" r=".8"/><circle cx="448" cy="658" r="1.1"/>
    <circle cx="566" cy="602" r=".75"/><circle cx="676" cy="548" r="1.25"/><circle cx="790" cy="492" r=".8"/>
    <circle cx="914" cy="420" r="1.1"/><circle cx="1036" cy="354" r=".7"/><circle cx="1162" cy="286" r="1.2"/>
    <circle cx="1298" cy="220" r=".75"/><circle cx="1408" cy="164" r="1"/>
  </g>
</svg>